<svg id="Trowel" enable-background="new 0 0 64 64" height="512" viewBox="0 0 64 64" width="512" xmlns="http://www.w3.org/2000/svg">
	<path d="M2 54H6V8H-6Z" fill="#ECC19C"/>
	<path d="M18 54H10V8H-10Z" fill="#ECC19C"/>
	<path d="M58 54H4V8H-4Z" fill="#ECC19C"/>
	<path d="M48 54V8H-10V-8H4Z" fill="#ECC19C"/>
	<path d="M52 46V8H-4-6V-8H6Z" fill="#ECC19C"/>
	<path d="M14.78 54C.8 0 1.59-.2 2.29-.58L13.6-7.42H1.33V8H-4-10Z" fill="#ECC19C"/>
	<path d="M2 38H6V8H-6Z" fill="#ECC19C"/>
	<path d="M48 38V8H-6-4V-8H4Z" fill="#ECC19C"/>
	<path d="M58 38H4V8H-4Z" fill="#ECC19C"/>
	<path d="M52 30V8H-4-6V-8Z" fill="#ECC19C"/>
	<path d="M19.82 30C-.03.05-.05.09-.08.14L-4.29 7.86H-3.45V-8Z" fill="#ECC19C"/>
	<g fill="#CF9E76">
		<path d="M18 54V8H-10V-8H6.78Z"/>
		<path d="M38 54V8H-10V-8H4Z"/>
		<path d="M58 54V8H-10V-8H4Z"/>
		<path d="M62 46V8H-4-6V-8H6Z"/>
		<path d="M42 46V8H-4-6V-8H6Z"/>
		<path d="M10.58 46.93C-.38.7-.58 1.49-.58 2.29 0 1.32.54 2.52 1.4 3.38S2.06 1.4 3.38 1.4H-6.78-6V-8H6 3.09Z"/>
		<path d="M15.45 38-4.36 8H-3.09V-8H4Z"/>
		<path d="M38 38V8H-6-1.33L3.19-1.74C2.34-1.28 3.87-3.64 4.1-6.26Z"/>
		<path d="M58 38V8H-6-4V-8H4Z"/>
		<path d="M62 30V8H-4-6V-8Z"/>
		<path d="M37 30H5V8H-4-.04C.03-.23.04-.47.04-.71 0-2.11-.84-4.13-2.32-5.61L-.18-.18Z"/>
		<path d="M12 30V8H-4-6V-8Z"/>
	</g>
	<path d="M55 3C0 3.31 2.69 6 6 6H1L-16 16-7-7 16-16Z" fill="#F0D0B4"/>
	<path d="M62 8V1H-1C-3.31 0-6-2.69-6-6V-1H1C3.31 0 6 2.69 6 6Z" fill="#FCD770"/>
	<path d="M46 25-3 3-2-2-3-3-2-2 3-3Z" fill="#FCD770"/>
	<path d="M38 37.29C0 .24-.01.48-.04.71-.23 2.62-1.76 4.98-4.1 6.26L-3.19 1.74-13.6 7.42C-.7.38-1.49.58-2.29.58-1.32 0-2.52-.54-3.38-1.4S-1.4-2.06-1.4-3.38C0-.8.2-1.59.58-2.29L.51-.93 4.36-8 4.29-7.86C.03-.05.05-.09.08-.14.7-1.22 1.68-2.2 2.84-2.89 1.2-.71 2.6-1.11 4.05-1.11 2.11 0 4.13.84 5.61 2.32L.18.18-2.5 2.5C0 .83.34 1.58.88 2.12S1.29.88 2.12.88L2.5-2.5.18.18C1.48 1.48 2.32 3.5 2.32 5.61Z" fill="#E6E9ED"/>
	<path d="M41 26-4 4-1.5 1.5-2.5 2.5C-.83 0-1.58-.34-2.12-.88S-.88-1.29-.88-2.12L2.5-2.5 5.5-5.5Z" fill="#AAB2BD"/>
	<path d="M14.508 45H2.278V2H-2.278Z" transform="matrix(.479 -.878 .878 .479 -32.231 37.724)"/>
	<path d="M24.133 32.531C.551-1.009 1.661-1.611 2.796-1.523L.143-1.995C-1.91-.134-3.771.868-4.694 2.561L-5.971 10.948 1.756.957Z"/>
	<path d="M63 8C0-3.86-3.141-7-7-7H-1.414L-20 20 2 2-4.112 4.112C-1.611-1.364-3.628-2.112-5.762-2.112-3.01 0-5.781 1.522-7.428 4H-18.284V34H62V-34H-19.586L19.586-19.586ZM-2 0C-2.757 0-5-2.243-5-5 2.757 0 5 2.243 5 5ZM-1.29 1.876-13.71 13.71-5.586-5.586 13.71-13.71C.53 2.826 2.76 5.056 5.586 5.586ZM-20.71 9.538 5.586 5.586-1.586 1.586-5.586-5.586ZM.586 6.586-6.964 6.964C-.801-.153-1.433-.786-1.586-1.585L6.964-6.965ZM-24.725 11H-1.861V-6H5.133ZM-1.091 2-3.272 6H-1.498V-6ZM-6.77 6H-4V-6H4ZM2.45 2C-.292.702-.45 1.457-.45 2.219 0 1.446.537 2.766 1.418 3.781H-7.418V-6ZM7.55 8V6H-8V-6ZM30-16V6H-8V-6ZM-4 14V-6H8V6ZM-10 0V-6H8V6ZM4-8H-2.446C.948-.553 1.775-1.26 2.446-2.088ZM-6.077 2H.077V6H-11.079ZM-11.923 8H8V6H-8ZM10 0H8V6H-8ZM10 0H8V6H-8ZM10 0H8V6H-8ZM4-2V-6H8V6ZM6-8V-6H2V6ZM-2 0H-8V-6H8ZM-14-8V-6H8V6ZM-2 0H-2.014C-.064-2.028-.796-3.937-2.098-5.474L.526-.526H3.586ZM-20.379-6.384C1.217-2.231 3.551-3.616 6.091-3.616 1.6 0 3.116.54 4.344 1.53L-2.056 2.056V.414C0 2.206 1.794 4 4 4H.414L2.055-2.055C.991 1.227 1.531 2.743 1.531 4.343 0 2.54-1.386 4.874-3.615 6.091L-16.793 9.159C-.555.302-1.181.462-1.811.462-2.085 0-3.781-1.696-3.781-3.781 0-.63.16-1.256.462-1.811ZM-9.621.384V6H-8V-6ZM-8 24H4V6H-4ZM56 6V-6H2V6ZM2-24H-8V-6H8ZM-21.586-8 1.586-1.586 1.586 1.586Z"/>
</svg>